<svg xmlns="http://www.w3.org/2000/svg" viewBox="0 0 1204.41 233.67">
    <defs>
        <style>.cls-1{fill:#fff;}</style>
    </defs>
    <g id="Layer_2" >
        <g id="Layer_1-2" >
            <path class="cls-1"
                  d="M300.82,153.51c1.82-1.43,3.43-2.23,4.39-3.52a91.31,91.31,0,0,0,15.84-35.07c1.35-6,1.35-12.32,2.08-18.48a29.32,29.32,0,0,1,1.25-5.09c1.94-6.32,6.28-7.23,12-6.06,3.69.75,4.75,3,3.81,7.14-.61,2.64-1.42,5.24-2,7.89-3,14,7.61,27.37,15.86,31.55a18.61,18.61,0,0,0,2.69,1.12c3.3,1.08,3.62.68,4.48-2.6,3.35-12.81,11.41-21.79,24-25.6,12.06-3.67,17.78,4,17.39,15.89-.32,10.15-3.92,19.55-7.58,28.88-1.18,3-.83,3.56,2.41,3.63,1.16,0,2.33,0,3.49-.12,2.95-.22,4.2-1.53,5-4.72,2.55-10.46,5.74-20.76,8.78-31.1.64-2.2,4.15-3.32,7.63-2.71,3,.51,4.74,2.07,4.3,4.82-.73,4.57-2,9.06-3.13,13.56-.65,2.55-1.5,5.05-2.26,7.57l.94.61a50,50,0,0,0,5-4.09,216.52,216.52,0,0,1,30.29-26.85,19.94,19.94,0,0,1,13.63-4c5.28.39,8.18,3.41,6.84,8.49-1.93,7.3-4.48,14.45-6.92,21.6-2.82,8.27-5.82,16.47-8.71,24.71a21.09,21.09,0,0,0-.6,2.73l.6.59c2.66-1.61,5.44-3.05,8-4.84,6.88-4.91,13.52-10.19,20.54-14.88,4.08-2.72,8.7-4.63,13.11-6.82a9.26,9.26,0,0,1,2.45-.48l.47.63a28,28,0,0,1-2.85,3.26c-11.46,9.48-22.88,19-34.5,28.3-4.23,3.38-9.1,5.62-14.87,4.71-4.1-.65-5.89-2.77-5.86-6.89.07-9.47,4.14-17.89,7-26.63,2-6.18,4.4-12.23,6.47-18.4a19.83,19.83,0,0,0,.43-4.47l-1.15-.51c-4,3.4-8.23,6.63-12.08,10.23-8.68,8.09-17.15,16.39-25.77,24.54-3.85,3.63-8.36,5.61-13.82,4.82a8.11,8.11,0,0,0-2.3.1c-4.49.65-8.95,1.52-13.46,1.93a8.31,8.31,0,0,0-5.64,2.47c-4,4.06-8.18,8-12.48,11.84a23,23,0,0,1-15.64,6.22c-9.46,0-14.26-5.83-12.75-15.19,1.43-8.86,5.6-16.47,10.35-23.87.61-.94,1.15-1.92,1.68-2.81-.41-.38-.57-.64-.68-.62-8.63,1.58-15.72-2.23-22.7-6.44-1.25-.75-2.44-1.59-3.66-2.39-2.59-1.73-3-1.56-4.65,1.26-4.34,7.59-8.73,15.15-13.11,22.71a17.63,17.63,0,0,1-13.05,8.84c-5.47.9-9.8-1.45-11.8-6.69-.86-2.25-1.55-4.55-2.52-7.44-.8.95-1.36,1.5-1.79,2.13-4.62,6.95-8.92,14.14-13.93,20.79-4.22,5.59-10,8.93-17.47,7.94-5.74-.77-8.44-3.69-8.81-9.45-.2-3.16,0-6.35,0-10.3-1.21.91-1.94,1.39-2.59,2-8,6.95-16.81,12.67-27.07,15.62a34.82,34.82,0,0,1-24.54-1.7c-10.51-4.79-14.8-13-14.05-25.79.88-15,7-27.9,17.75-38.58,5.09-5.08,11-7,18.09-5.23,9.16,2.35,13.16,10.53,8.94,18.95-5.6,11.2-14.46,19.11-25.82,24.27-3.68,1.67-4.2,2.44-3.9,6.45a20.15,20.15,0,0,0,5.35,12c2.58,2.89,6,3.74,9.83,3.11,6.32-1,12.41-2.85,17.72-6.38,6.85-4.55,13.5-9.44,20-14.53a11.33,11.33,0,0,0,3.33-5.86c2.81-10.82,5.75-21.59,10.85-31.61a31.06,31.06,0,0,1,3.59-5.3,5.65,5.65,0,0,1,2.64-1.61c2.16-.67,3.14,0,2.54,2.46-1.65,6.69-3.35,13.37-4.8,20.11-2.64,12.21-6.45,24.23-6.49,36.89a26.5,26.5,0,0,0,.31,3.77c.42,2.93,1.25,3.33,3.67,1.54a15.94,15.94,0,0,0,2.92-3.2c8-10.31,13.25-22.14,18.88-33.77,1.53-3.14,3.07-6.28,4.76-9.34,2.54-4.62,5.82-6.22,10.69-5.76,2.32.22,3.38,1.25,3.23,3.52-.4,6.09-.87,12.18-1.22,18.27-.2,3.58-.31,7.18-.27,10.76C299.72,150.18,300.3,151.44,300.82,153.51Zm93.41-34.44a52.09,52.09,0,0,0-1.55-6.41c-.77-2-2.15-2.66-4.35-1.29-5.2,3.25-8.57,8-11.7,13.09-4.49,7.31-.4,19.31,6.32,23.44,1.77,1.09,2.52,1,3.52-.92A67.28,67.28,0,0,0,394.23,119.07Zm-37.42,48.31c0,.48,0,1,0,1.45.19,4.52,2.37,6,6.46,4C370,169.57,375,164.3,378.9,158a3,3,0,0,0-.76-2.72c-3.84-3.25-7.87-6.27-11.75-9.48-1.29-1.07-2.05-1.13-2.93.41A47.58,47.58,0,0,0,356.81,167.38Zm-161.5-31.11c.59,0,.85.08,1,0a38.56,38.56,0,0,0,12.66-17.73c.44-1.3-.18-3-.37-5.09C200,119.37,196.75,127.14,195.31,136.27Z"/>
            <path class="cls-1"
                  d="M66,144.17c-2.28,2-4.92,4-7.34,6.31-7.73,7.31-16,14-25.43,18.9-7.75,4-16.05,5.36-24.58,2.83-6-1.79-9.39-8-8.47-14.17C2.36,143.19,8,129.65,15.63,116.86c2.78-4.67,4.79-5.11,10-3.77,2.74.7,3.2,2.18,2.48,4.45-1.69,5.37-3.58,10.68-5.17,16.08-2.32,7.89-4.44,15.84-6.65,23.77a2.5,2.5,0,0,0-.14.86c.54,7.1,2.15,9.42,8,6.36a172.9,172.9,0,0,0,20.07-12.28A110.65,110.65,0,0,0,68,129.23a12.79,12.79,0,0,0,2.18-4.68c4.78-19.62,9.45-39.26,14.19-58.89,1.43-5.95,3-11.86,4.45-17.8.7-2.85,0-3.91-3-3.66-6.77.57-13.52,1.42-20.27,2.21-8.12,1-16.22,2-24.33,3a9.79,9.79,0,0,1-8.21-2.83c1.91-2.67,4.59-3.77,7.62-4.22Q59,39.64,77.48,37c3.75-.55,7.5-1.28,11.27-1.46,2.81-.12,3.71-1.47,4.54-3.86q4.15-12.1,8.82-24c1.16-2.95,2.58-6.16,6-7.18a8.92,8.92,0,0,1,5.87.15c.8.36,1,3.31.54,4.85-2,7.48-4.37,14.89-6.6,22.32-.22.74-.37,1.51-.63,2.24-.65,1.9-.27,3,2,2.95,5.64-.07,11.28.1,16.9-.15,14-.62,28-1.61,42-2,5.9-.17,11.83.67,17.74,1.2a14.79,14.79,0,0,1,3.63,1.34c0,.29-.05.59-.07.88-1.45.18-2.89.4-4.33.53-9.88.82-19.76,1.56-29.63,2.45-11.6,1.05-23.19,2.23-34.79,3.35-3.67.36-7.34.76-11,1.07-4.76.39-5.56.92-6.84,5.63-1.52,5.52-2.84,11.1-4.29,16.64C94.82,77.93,91.07,92,87.41,106.1c-4.79,18.52-9.61,37-14.25,55.58-3.53,14.12-6.87,28.3-10.11,42.49-1.43,6.23-2.38,12.58-3.63,18.85-.61,3-1.38,6-2.17,9-.51,1.91-1.94,2.06-3,.73a6.62,6.62,0,0,1-1.5-4.16c.79-9.76,1.28-19.58,2.88-29.22,3-17.88,6.65-35.65,10-53.47C65.83,145.15,66,144.35,66,144.17Z"/>
            <path class="cls-1"
                  d="M155,112.46c1.2-1.07,2.45-2.08,3.57-3.22a10.08,10.08,0,0,1,8.49-3c3.79.35,5.69,2.55,5.05,6.3-2.14,12.52-4.4,25-6.65,37.53-2.12,11.82-2.32,23.77-1.82,35.69.12,3,2.26,5.9,3.45,8.8-5.24,1.31-10.25-1-12-6.51a62.92,62.92,0,0,1-3-23.54c.61-10.23,1.81-20.43,2.72-30.65a24.71,24.71,0,0,0-.3-3.49c-1.35,1.22-2.14,1.85-2.84,2.57-8.22,8.54-16.28,17.25-24.71,25.58A105.69,105.69,0,0,1,114,168.94a19.56,19.56,0,0,1-16.34,3.38c-3.44-.79-5.59-2.73-5.46-6.22a49.92,49.92,0,0,1,2-13.69,105,105,0,0,1,27.35-43.16C128,103,135.36,97.84,145.2,98.4c6.19.36,8.72,2.8,8.9,9.08.05,1.51,0,3,0,4.53Zm-51.11,52c1,.12,1.3.26,1.53.17a11,11,0,0,0,1.81-.92c15-9.53,26.47-22.43,36-37.23a3.89,3.89,0,0,0,.08-2.38c-.31-2.07-.9-4.1-1.06-6.17-.19-2.41.21-4.87-.08-7.26-.36-2.92-1.46-3.27-3.78-1.58a30.43,30.43,0,0,0-2.76,2.15C121.68,123.6,112.28,139,105.37,156,104.33,158.59,104.33,161.59,103.84,164.44Z"/>
            <path class="cls-1"
                  d="M558.88,124.43c4.6-7.14,9-13.83,13.24-20.68,1.33-2.16,2.77-3,5.46-2.15-1.71,2.65-3.37,5.24-5,7.83-3.46,5.39-6.87,10.82-10.42,16.15a3,3,0,0,0,0,3.89c5.36,8.07,10.62,16.22,16,24.49-2.46.79-4,.37-5.37-1.84-4.57-7.31-9.39-14.47-14.23-21.88-4.7,7.32-9.41,14.44-13.87,21.71-1.35,2.2-2.84,2.86-5.47,2.06,5.79-9,11.5-17.87,17.31-26.88-5.47-8.44-10.95-16.88-16.51-25.47,2.64-.92,4.06-.1,5.39,2C549.68,110.52,554.17,117.22,558.88,124.43Z"/>
            <path class="cls-1"
                  d="M1063.32,183.31c-1.27,3.49-2,7.29-3.92,10.42-4.78,7.89-15.35,8.09-20.33.33a22.22,22.22,0,0,1-3.25-10c-.63-8.38,3-12,11.35-12.34,1.55-.07,3.12-.06,4.67,0,8,.42,10.76,3.38,10.71,11.32Zm-19.71,1.92c.72,3,1.32,6.29,2.4,9.44a3.94,3.94,0,0,0,3.06,2.08,4.14,4.14,0,0,0,3-2.19,24.81,24.81,0,0,0,1.21-17.27c-.4-1.38-2.36-2.81-3.87-3.23-2.13-.59-3.73,1.1-4.29,3.07C1044.42,179.61,1044.15,182.22,1043.61,185.23Z"/>
            <path class="cls-1"
                  d="M1145.28,199.13c2.28-9.19,1.78-17.75.27-26.82a8.6,8.6,0,0,1,2-.35c5.35-.1,10.7-.14,16-.18,2.48,0,3.36,2.44,2,5.89-2.89-2.1-5.88-5-9.56-2.66-1.4.91-1.62,3.65-2,5.81,2.44-1.71,4.68-3.75,7.47-2.09a5.92,5.92,0,0,1,2.25,4.29,3.68,3.68,0,0,1-3.21,3.77l-3.2-3.43c-1,1.26-2.56,2.38-3,3.82a21.38,21.38,0,0,0-.29,6.36c.1,2.57,1.56,3.81,4,3.12a16.11,16.11,0,0,0,4.76-2.58,31.49,31.49,0,0,0,3.37-3.23c1.67,4.76-1.07,8.83-5.53,8.84-4.28,0-8.56,0-12.84,0A11.69,11.69,0,0,1,1145.28,199.13Z"/>
            <path class="cls-1"
                  d="M1180.47,199.16a58.58,58.58,0,0,0,.16-26.82,5.38,5.38,0,0,1,1.46-.38c5.64-.09,11.29-.23,16.93-.1.77,0,1.77,1.38,2.17,2.33s.08,2.06.08,3.62c-3.54-1.95-6.67-5.62-10.57-2.49-1.25,1-1.26,3.56-1.52,5.58,2.47-1.7,4.72-4,7.62-2.07a6,6,0,0,1,2.06,4.39c0,2.32-1.92,3.32-3.4,3.64l-2.75-3.51c-1,1-2.68,1.87-2.94,3a30.24,30.24,0,0,0-.49,7.79,2.57,2.57,0,0,0,3.47,2.53,21.59,21.59,0,0,0,5.74-3.1c1-.69,1.56-2,2.46-3.15,2.27,4.27-.42,9.2-4.27,9.22-4.57,0-9.15,0-13.72,0A11.29,11.29,0,0,1,1180.47,199.16Z"/>
            <path class="cls-1"
                  d="M1076.11,172.17c1-.08,2.23-.24,3.45-.26,4.28,0,8.56,0,12.84-.11s5.23,1.24,4.06,5.93c-3.12-2.21-6.39-5-10.16-2.46-1.36.92-1.45,3.73-1.71,5.92,2.52-2.15,4.74-4.38,8.09-2.33a4,4,0,0,1,1.78,5.08c-.67,1.9-1.94,3.29-3.58,3.18-.94-1.57-1.37-3.25-2.25-3.53-1.88-.61-3.21.8-3.5,2.59-.67,4.17-1.43,8.41,1.32,12.87h-10.28A72.53,72.53,0,0,0,1076.11,172.17Z"/>
            <path class="cls-1"
                  d="M1110.74,172.28a23.37,23.37,0,0,1,2.88-.36c4.66-.08,9.33,0,14-.15,3.69-.11,5.08,2.13,3.36,5.94-2.94-2.38-6.19-4.84-9.88-2.5-1.4.88-1.54,3.75-1.82,6,2.46-2.17,4.79-4.53,7.93-2.35a6,6,0,0,1,2,4.63c-.15,2-1.66,3.64-3.11,3.58-1.43-1.64-2.2-3.37-3.22-3.53-2.08-.33-3.07,1.5-3.23,3.35-.33,3.9-1.21,7.9,1.43,11.93a21,21,0,0,1-10.34.29A64.28,64.28,0,0,0,1110.74,172.28Z"/>
            <path class="cls-1"
                  d="M1013.17,180.41c.3-.4.42-.71.64-.84,1.79-1,2.74-2.29,1.27-4.21a3.39,3.39,0,0,0-5.15,0,7.69,7.69,0,0,0-1.85,3.21,20.16,20.16,0,0,0,.83,12.85c1.67,4.12,5.21,6.17,9.76,5.91,1,0,2-.14,3.52-.26-2.39,2.23-6.83,3.13-10.43,2.46-9.9-1.84-16-13.56-11.7-22.69a8.17,8.17,0,0,1,7.65-4.93,77.17,77.17,0,0,1,9.62,0c1.64.15,3.76.8,4.66,2,1.45,1.9.29,4.09-1.12,5.83C1018.77,182.35,1016,182.61,1013.17,180.41Z"/>
            <path class="cls-1"
                  d="M1124.76,121.14c0-10.19-.17-20.39.07-30.59.11-4.57-.77-8.55-3.56-12.24-2.07-2.73-1.22-4.46,2.17-4.88a46.49,46.49,0,0,1,5.54-.24c16.92,0,33.85.1,50.78-.07,7.75-.08,13.44,3.14,17.7,9.35a38.83,38.83,0,0,1,6.53,18.17c1.84,17.46-2.36,33.15-14.2,46.43-8.7,9.77-19.85,14.42-32.8,14.79-8.65.25-17.32.22-26,.26-4.25,0-6.15-1.92-6.16-6.31,0-11.55,0-23.11,0-34.67Zm24.45-2.29h-.31c0,8-.11,15.94.06,23.9a27.58,27.58,0,0,0,1.33,7.69c1.44,4.53,4,5.78,8,3.18a31.69,31.69,0,0,0,8.63-8.41c9-13.28,11.78-28.11,9.67-43.91-.77-5.82-2-11.52-5.67-16.33-5.8-7.71-16.65-6.34-20.15,2.62a24.63,24.63,0,0,0-1.44,8.24C1149.09,103.5,1149.21,111.18,1149.21,118.85Z"/>
            <path class="cls-1"
                  d="M776.13,123.29c0-10.39,0-20.79,0-31.18,0-5.08-.82-9.77-4-14-2.38-3.21-1.29-5.31,2.78-5.38,8.76-.16,17.52-.14,26.28,0,3.69.06,4.74,2.18,2.49,5.16-3,4-3.9,8.32-3.78,13.13.13,5.34,0,10.68,0,16,0,3.22,1.12,3.92,3.63,1.94,6.32-5,12.84-9.8,18.53-15.43s5.21-9,.66-15.45c-.7-1-1.48-2.89-1-3.49a5.51,5.51,0,0,1,3.8-1.94c6.32-.2,12.65-.13,19-.07,2.73,0,4.07,1.41,3.05,3.88a34.51,34.51,0,0,1-5.47,9.43c-4.7,5.43-9.85,10.48-15,15.53-1.66,1.64-2.23,3.13-1.53,5.38,4.61,14.77,10.37,29,18.61,42.21,2.27,3.62,4.78,7.09,7.08,10.68a9.49,9.49,0,0,1,.76,2.54c-.91.17-2,.71-2.71.45-3.55-1.23-7.35-2.18-10.48-4.15a87.74,87.74,0,0,1-27.16-26.44c-2.5-3.81-4.89-7.71-7.42-11.5a10.13,10.13,0,0,0-2.14-1.78,9.67,9.67,0,0,0-1.69,2.5,16.47,16.47,0,0,0-.45,4.33q0,6.56.1,13.11c.11,6.66,1,13.12,4.33,19.1,1.47,2.66.56,4-2.52,4-7,.06-14,0-21,0-3.92,0-4.84-.89-4.86-4.81,0-11.27,0-22.54,0-33.81Z"/>
            <path class="cls-1"
                  d="M991.28,118.38c-1.84,2.14-3.33,4.48-5.39,6.11a23.61,23.61,0,0,1-7,3.58c-1.39.48-2.44-.51-2.37-2.38.27-7.62-5.69-11.15-12.59-7.5A20.88,20.88,0,0,0,953.06,132a147.72,147.72,0,0,0-3.19,19.19c-.17,1.58,1.39,3.48,2.45,5,2.18,3.15,1.68,4.68-2.17,5.26a34.56,34.56,0,0,1-7,.44c-3.29-.17-5.13-1.92-5-5.2.11-3.65.23-7.48,1.38-10.89q9.83-29.37,20.24-58.55c1-2.87,1-5.07-.67-7.6-2.63-4-1.64-6,3.12-6.08,14-.22,28-.29,42-.36,2.77,0,4.14,1.89,2.66,4.24-2.63,4.19-1.55,8-.12,12.15,5.69,16.6,11.71,33.12,15,50.44.83,4.39,1.62,8.79,2.09,13.22.53,5.07-1.8,7.92-6.86,8.1-6.79.24-13.59.17-20.38,0-2.74-.07-3.91-2.55-2-4.39,4.75-4.54,4.82-10,3.45-15.62-1.78-7.34-3.93-14.59-6-21.87C992,119.13,991.68,118.88,991.28,118.38Zm-6.46-17.68c0-.74.43-2.23-.08-3.24a67.63,67.63,0,0,0-5.81-10c-2.1-2.84-4.4-2.81-6.87-.26a25.78,25.78,0,0,0-4.54,6c-2.15,4.22-3.88,8.65-5.78,13l.77.35c3.28-2.08,6.32-5.06,9.9-6S980.35,100.56,984.82,100.7Z"/>
            <path class="cls-1"
                  d="M1046.08,93.56a14.65,14.65,0,0,0-.56,2.75c.31,14.66.7,29.31,1,44,.12,6.63,3.39,12,6.54,17.48,1.63,2.81,1.1,4.07-2.09,4.51a28.81,28.81,0,0,1-6.69.14c-4.69-.49-7.43-3-7.54-7.74q-.45-19.65-.33-39.31c0-8.35.49-16.7.81-25a13.3,13.3,0,0,0-4.53-10.6c-1.18-1.13-1.6-3-2.37-4.6,1.67-.79,3.3-2.17,5-2.24,6-.28,12.06-.15,18.1-.09a15,15,0,0,1,10.25,4.31q17.71,16.5,35.4,33c.77.72,1.55,1.41,2.83,2.57a17.94,17.94,0,0,0,.7-3.65c-.31-5.52-.71-11-1.12-16.55-.43-5.8-3.91-10.24-6.77-14.95-1.64-2.7-1.18-4.12,2-4.6a29.45,29.45,0,0,1,8.12-.16c3.45.43,5.82,3.63,6.11,8.22.46,7.37.9,14.75.84,22.12-.15,17.48-.58,35-.93,52.43-.06,2.69-1,5-3.7,6.08-3,1.14-6.15,1.48-9-.35-.71-.46-1-2.16-.83-3.2a7,7,0,0,1,1.71-3c3.19-3.89,2.68-7.9-.12-11.49a104.82,104.82,0,0,0-10.63-11.94c-12.81-12.06-25.83-23.91-38.8-35.8A30.19,30.19,0,0,0,1046.08,93.56Z"/>
            <path class="cls-1"
                  d="M864.4,118.62c0-8.25,0-16.5,0-24.76a29.9,29.9,0,0,0-4.34-16.35c-1.89-3-1.06-4.73,2.4-4.79,9.44-.19,18.88-.16,28.31-.07,2.58,0,3.84,2.33,2.12,4.21-5,5.45-4.74,12-4.69,18.62.11,12.92-.05,25.83,0,38.75,0,5.34.37,10.72,3,15.57,3.67,6.76,12.34,7.1,16.47.7a7.91,7.91,0,0,0-1.34-10.78,55.2,55.2,0,0,0-4.92-4.11c-2.29-1.64-1.57-3.07.22-4.29a16.23,16.23,0,0,1,12.2-2.75c10.92,1.81,19.44,12.67,17.76,22.71-1,6-5.64,10.5-11.8,10.55-18.29.17-36.58.12-54.87,0-4,0-5-1.63-3.1-5.09,2.69-4.86,3.37-10,3.31-15.45-.1-7.57,0-15.14,0-22.72Z"/>
            <path class="cls-1"
                  d="M643.09,97.12c4.54,1.62,9,3.31,13.48,4.76,1.61.52,1.71,1.45,1.76,2.81.18,5.94.68,11.86,3.3,17.31a25.45,25.45,0,0,0,3.92,6.07c5.44,6,13.29,5.77,18.52-.4,2.39-2.81,5.08-4.72,8.94-4.67,4.42.06,7,1.72,8.27,5.93,1,3.15,1.49,6.43,2.46,9.58a33.91,33.91,0,0,0,3,7.51c4.21,7,13,7.1,17.61.35,3.21-4.71,4.15-10.2,5-15.67,1.17-7.61,2.55-9.21,10.06-11.19a46,46,0,0,0,4.47-1.34c4.93-1.85,6.66-4.41,6.64-9.69,0-.29,0-.58,0-.87,0-7.16,0-7.16,7.33-10.43-1.56,6.42-2.79,12.43-4.48,18.31-3.29,11.39-8.24,22-16.23,30.93-20.63,23.05-56.94,21.81-76.26-2.4C651.34,132.05,644.67,112.56,643.09,97.12Z"/>
            <path class="cls-1"
                  d="M663.76,103.8c27.29,4.64,54.23,4.68,81.4-1.5a61.45,61.45,0,0,1-.11,7.73,4.14,4.14,0,0,1-2.25,2.66,43.58,43.58,0,0,1-6.94,2.15c-6.76,1.69-10.27,6.18-11.52,12.8a117.63,117.63,0,0,1-2.53,11.64c-.9,3-2.1,6.5-6.08,6.52-4.16,0-5.23-3.53-6.2-6.7-1.08-3.52-1.78-7.15-2.8-10.69-3.09-10.83-15.14-14.47-23.84-7.23a21.15,21.15,0,0,0-2.27,2.27c-4.29,4.88-8.72,4.78-12.4-.58C664.32,117.18,663.88,110.61,663.76,103.8Z"/>
            <path class="cls-1"
                  d="M741.56,97.9a39.37,39.37,0,0,0,5.82-19.59c0-1.06.23-2.31-.23-3.15-.55-1-1.73-1.69-2.64-2.51-.77.94-2,1.8-2.23,2.84-.56,3.23-.61,6.55-1,9.8a22.91,22.91,0,0,1-1.32,4.45c-2.22,6.36-5.6,11.13-13.39,10.85-3.36-.12-6.75.6-11,1,1.83-1.56,3.06-2.55,4.22-3.61,8.16-7.46,13.3-16.52,13.68-27.69A26.43,26.43,0,0,0,714.1,44.21a11.21,11.21,0,0,1-3.29-1.12c-1.17-.83-3-2.2-2.87-3.09.21-1.47,1.52-3.58,2.8-4a28.43,28.43,0,0,1,10.18-1.39c6.5.61,11.91,4.1,16.65,8.4,11.12,10.09,18.76,22.16,20.82,37.33,1.25,9.16,0,11.44-8.58,14.74C747.38,96.06,744.88,96.79,741.56,97.9Z"/>
            <path class="cls-1"
                  d="M727.47,76.3a33.13,33.13,0,0,1-9.07,15.76,73.74,73.74,0,0,1-10.79,8.31c-3.75,2.4-7.7,1.77-11.08-1.09-2.45-2.07-4.73-4.33-7-6.57-11.62-11.36-26.91-11.81-39.19-1.13-2.35,2-4.58,1.53-7.33-1.67-1.71-2-1.48-3.6,1.18-5.55,5.15-3.76,11.21-5.31,17.3-6.59,21.26-4.47,42.67-4.47,64.15-1.88C726.18,76,726.73,76.14,727.47,76.3Z"/>
            <path class="cls-1"
                  d="M639,105.43c-2.37.2-4.5.23-6.58.59-6,1-9.07,6.21-7.15,12,2.44,7.3,8.32,10.46,15.31,10.29,5.15-.13,6.93,2.21,8.23,6.18a9.57,9.57,0,0,1,.19,1.14c-2.66.19-5.29.59-7.91.53-11.15-.26-20.08-6.12-22.72-15.42a25.19,25.19,0,0,1-.64-10.88c1.22-7,6.7-9.79,13-11.19,6.53-1.45,7.21-1,8.15,5.51C638.94,104.5,638.93,104.89,639,105.43Z"/>
            <path class="cls-1" d="M653.8,95.74c11.77-10.26,25.41-9.63,37,6A142.9,142.9,0,0,1,653.8,95.74Z"/>
        </g>
    </g>
</svg>