<svg xmlns="http://www.w3.org/2000/svg" viewBox="0 0 384.05 432"><g id="Layer_2" data-name="Layer 2"><g id="Layer_1-2" data-name="Layer 1"><path d="M18.83,120.56h87.38C108.88,91,117.12,64.4,129,43.86,144.62,16.71,166.9,0,192.08,0s47.34,16.83,63.12,43.86C267,64.28,275.27,91,277.94,120.56H365.2c10.33,0,19.61,8.47,18.8,18.8L366.48,383.85C364.27,414.48,345,432,317.05,432H67.11c-31.1,0-47.58-21.7-49.44-48.15L0,139.47c-.7-10.32,8.47-18.91,18.79-18.91Zm109.19,0H255.9c-2.56-25.64-9.64-48.39-19.73-65.79-11.6-20.31-27.38-33-44.09-33s-32.49,12.65-44.33,33.07C137.66,72.17,130.69,95,128,120.56Z" style="fill:#ea501f"/><path d="M128.6,346.25a8.85,8.85,0,0,1,10-14.62c2.56,1.74,5.23,3.48,8.13,5.22,20.42,12.42,39.22,18.57,54.88,18.57,14.16,0,25.64-5.34,32.95-16.13h0c.47-.81.93-1.28,1.05-1.63a43.32,43.32,0,0,0,4.64-10.44,31.37,31.37,0,0,0-1.16-21.35c-3.13-7.08-9.17-13.92-18.57-19.61h0a90.38,90.38,0,0,0-23.43-9.75c-23.91-6.73-41.55-16.24-51.06-29-10.44-14-11.26-31-.12-51.52,7.43-13.57,22.63-22,41.89-23.55,16.6-1.28,36.55,2.67,56.86,13a8.88,8.88,0,0,1-8.12,15.79c-17.29-8.82-33.77-12.19-47.46-11.14-13.11,1-23.09,6.15-27.5,14.27-7.43,13.57-7.31,24.25-1.28,32.37,7,9.4,21.47,16.71,41.66,22.4a114.83,114.83,0,0,1,27.85,11.72h0c12.65,7.66,21.12,17.29,25.64,27.73a49.18,49.18,0,0,1,2.09,33.3,57.86,57.86,0,0,1-6.61,14.85c-.7,1.05-1.16,1.86-1.51,2.44h0c-10.79,15.9-27.39,23.79-47.58,23.9-18.91,0-41-7-64.16-21.11A105.81,105.81,0,0,1,128.6,346.25Z" style="fill:#fff"/></g></g></svg>