<svg xmlns="http://www.w3.org/2000/svg" viewBox="0 0 383.11 433.19"><g id="Layer_2" data-name="Layer 2"><g id="Layer_1-2" data-name="Layer 1"><path d="M285.67,82.81h97.44V309.45A124.07,124.07,0,0,1,259.37,433.19H0V82.81H97.44a94.89,94.89,0,0,1,188.23,0Zm-164.14.77a197.94,197.94,0,0,1,31.86,5.35,177,177,0,0,1,38.16,14.47,177.36,177.36,0,0,1,38.16-14.47,198.31,198.31,0,0,1,31.86-5.35,70.93,70.93,0,0,0-140,0Z" style="fill:#414141;fill-rule:evenodd"/><path d="M279.79,96.28h88.57a1.28,1.28,0,0,1,1.27,1.28V309.45c0,60.64-49.62,110.26-110.26,110.26H191.55v-301C215.4,104.9,245.41,96.28,279.79,96.28Z" style="fill:#4f9d4e;fill-rule:evenodd"/><path d="M103.32,96.28H14.75a1.28,1.28,0,0,0-1.27,1.28V419.71H191.55v-301C167.71,104.9,137.7,96.28,103.32,96.28Z" style="fill:#60bb55;fill-rule:evenodd"/><path d="M329.77,394.14a109.68,109.68,0,0,1-70.4,25.57H191.55V303.06C252.8,303.34,305.54,340.56,329.77,394.14Z" style="fill:#60bb55;fill-rule:evenodd"/><path d="M42.91,419.71H191.55V303.06h-.7C120,303.05,60.32,352.54,42.91,419.71Z" style="fill:#84c567;fill-rule:evenodd"/><path d="M108.45,139.23a90.19,90.19,0,0,1,83.1,55.23,90.07,90.07,0,1,1,46.68,117.31l-4.39,4.39-35.58,35.58-7.41,7.41-7.41-7.41-35.59-35.58-4-4a90.11,90.11,0,1,1-35.44-173Zm93.66,143.55a90.37,90.37,0,0,1-10.56-18.57,89.6,89.6,0,0,1-10.33,18.26,55.11,55.11,0,0,1,20.89.31Z" style="fill:#414141;fill-rule:evenodd"/><circle cx="274.66" cy="229.33" r="76.63" style="fill:#fff"/><circle cx="108.45" cy="229.33" r="76.63" style="fill:#fff"/><path d="M116.87,180.91a48.38,48.38,0,1,1-42,24.3A23.73,23.73,0,1,0,114.25,181C115.12,180.93,116,180.91,116.87,180.91Z" style="fill:#414141;fill-rule:evenodd"/><path d="M264.55,180.91a48.41,48.41,0,1,1-42,24.3A23.72,23.72,0,1,0,261.92,181C262.79,180.93,263.67,180.91,264.55,180.91Z" style="fill:#414141;fill-rule:evenodd"/><path d="M190.85,292.1c14,0,26.63,6.39,35.58,16.65l-35.58,35.58Z" style="fill:#ffc868;fill-rule:evenodd"/><path d="M190.85,344.33l-35.59-35.58c9-10.26,21.59-16.65,35.59-16.65Z" style="fill:#fcf5ae;fill-rule:evenodd"/></g></g></svg>