<svg xmlns="http://www.w3.org/2000/svg" viewBox="0 0 366.47 365.67"><g id="Layer_2" data-name="Layer 2"><g id="Layer_1-2" data-name="Layer 1"><path d="M0,332.8V72.53C0,57.41,12.51,45.12,27.94,45.12H293.3L0,332.8Z" transform="translate(0 0)" style="fill:#1ea361;fill-rule:evenodd"/><path d="M0,338.26V332.8L293.3,45.12h5.57c15.43,0,27.95,12.29,27.95,27.41V78L33.51,365.67H27.94C12.51,365.67,0,353.39,0,338.26Z" transform="translate(0 0)" style="fill:#fedb43;fill-rule:evenodd"/><polygon points="33.51 365.67 163.41 238.27 293.3 365.67 33.51 365.67 33.51 365.67" style="fill:#5384c4;fill-rule:evenodd"/><path d="M293.3,365.67,161.42,236.32l33.52-32.87L326.82,332.8v5.46c0,15.13-12.52,27.41-27.95,27.41Z" transform="translate(0 0)" style="fill:#fff;fill-rule:evenodd"/><polygon points="326.82 332.8 196.92 205.4 326.82 78 326.82 332.8 326.82 332.8" style="fill:#c2c2c1;fill-rule:evenodd"/><path d="M58.29,80.56c16.63-7.47,37.43-4.42,50.94,7.8-4.22,4.22-8.56,8.35-12.91,12.46-13.5-13.15-38.88-6.91-45.21,10.48-8.28,17.11,5.48,39.61,25,39.85,12.74,1.46,25.44-6.91,28.13-19.35-8.9,0-17.78-.07-26.66.06-.25-5.37-.29-10.75-.17-16.14,14.86.37,30.08-.84,44.73.59,1.12,10.66.35,22-5.5,31.32-9.16,16.74-30.8,24-49.11,19.82C44.84,162.84,27.89,140.07,31,117.5c1.58-15.91,12.55-30.34,27.31-36.94Z" transform="translate(0 0)" style="fill:#e9e9e8"/><path d="M267.67,56.75c-12.56,2.75-23.11,13.65-24.16,26.4-1.32,11.87,5.76,23.92,16.62,29.16,11.76,6.11,27.21,4.24,37-4.58,9.17-8,12.51-21.71,7.72-32.83-5.67-13.92-22.5-21.84-37.21-18.15ZM269.74,0h10.62c26.48,1.49,52.37,14.18,68.42,35.05,10.51,13.18,16.37,29.54,17.69,46.16v6.17c-.61,32.22-21.63,58.67-39.83,83.73-20.44,28.31-39.32,59.17-44.55,94.08-1.4,5.91.28,14.19-6.93,16.85-1.69-1.29-3.66-2.36-4.85-4.17a176.33,176.33,0,0,0-15.59-56.6c-9.63-20.76-23-39.52-36.67-57.88a265.54,265.54,0,0,1-22.58-34.55c-10.17-18.2-13.95-39.71-9.79-60.14A84.29,84.29,0,0,1,209.6,26.08,96,96,0,0,1,269.74,0Z" transform="translate(0 0)" style="fill:#de5548"/><path d="M267.67,56.75c14.71-3.69,31.54,4.23,37.21,18.15,4.79,11.12,1.45,24.87-7.72,32.83-9.82,8.82-25.27,10.69-37,4.58-10.86-5.24-17.94-17.29-16.62-29.16,1.05-12.75,11.6-23.65,24.16-26.4Z" transform="translate(0 0)" style="fill:#7a2b2b"/></g></g></svg>