<svg xmlns="http://www.w3.org/2000/svg" xmlns:xlink="http://www.w3.org/1999/xlink" viewBox="0 0 431 431.81"><defs><linearGradient id="linear-gradient" x1="106.07" y1="225.56" x2="106.07" y2="429.83" gradientTransform="matrix(2.04, 0, 0, -2.04, -0.96, 884.66)" gradientUnits="userSpaceOnUse"><stop offset="0" stop-color="#20b038"/><stop offset="1" stop-color="#60d66a"/></linearGradient></defs><g id="Layer_2" data-name="Layer 2"><g id="Layer_1-2" data-name="Layer 1"><path d="M7.46,424.34l29.39-107A205.81,205.81,0,0,1,9.2,214c.05-113.89,93-206.55,207.17-206.55A206.9,206.9,0,0,1,423.53,214.19c0,113.9-93,206.56-207.16,206.56h-.09a207.46,207.46,0,0,1-99-25.14L7.46,424.34Z" style="fill:url(#linear-gradient)"/><path d="M162.77,124.51c-4-8.9-8.25-9.08-12.07-9.24-3.12-.13-6.7-.12-10.28-.12a19.72,19.72,0,0,0-14.29,6.69c-4.92,5.35-18.77,18.29-18.77,44.6s19.21,51.74,21.89,55.31,37.1,59.29,91.6,80.73c45.29,17.81,54.51,14.27,64.34,13.38s31.73-12.94,36.2-25.43,4.46-23.19,3.12-25.42-4.91-3.57-10.27-6.24-31.73-15.62-36.64-17.4-8.5-2.68-12.07,2.68-13.85,17.39-17,21-6.26,4-11.62,1.34S214.3,258,193.82,239.81c-15.94-14.18-26.7-31.68-29.83-37s-.34-8.24,2.35-10.91c2.41-2.39,5.36-6.24,8-9.36s3.57-5.36,5.35-8.92.9-6.7-.44-9.37-11.77-29.12-16.53-39.7Z" style="fill:#fff;fill-rule:evenodd"/><path d="M368.2,62.75A213.56,213.56,0,0,0,216.4,0C98.11,0,1.85,96,1.8,214a213.26,213.26,0,0,0,28.64,107L0,431.81l113.76-29.75a215,215,0,0,0,102.55,26h.09c118.27,0,214.55-96,214.6-214A212.39,212.39,0,0,0,368.2,62.75ZM216.4,392h-.07a178.48,178.48,0,0,1-90.78-24.8L119,363.32,51.52,381l18-65.62-4.25-6.73A177.12,177.12,0,0,1,38,214c0-98,80.05-177.83,178.44-177.83a178.15,178.15,0,0,1,178.3,178C394.72,312.18,314.71,392,216.4,392Z" style="fill:#fff"/></g></g></svg>